
<global>
amp_veltrack=0
ampeg_attack=0.01
ampeg_release=2.5
</global>

<group>
group_label=PP
loop_mode=loop_continuous
xf_cccurve=gain
xfin_hicc1=42
xfout_hicc1=85
xfout_locc1=42

<region>
end=293654
hikey=C4
hivel=127
lokey=G3
loop_end=256890
loop_start=102741
loop_xfade=45212
lovel=0
pitch_keycenter=G3
release_start=277588
release_xfade=15545
sample=Basses_sustain_PP_G4.opus
</region>

<region>
end=306707
hivel=127
key=G2
loop_end=268308
loop_start=107308
loop_xfade=47222
lovel=0
release_start=285799
release_xfade=16236
sample=Basses_sustain_PP_G3.opus
</region>

<region>
end=300212
hivel=127
key=G1
loop_end=262627
loop_start=105036
loop_xfade=46222
lovel=0
release_start=279747
release_xfade=15893
sample=Basses_sustain_PP_G2.opus
</region>

<region>
end=299099
hivel=127
key=G#2
loop_end=261653
loop_start=104646
loop_xfade=46051
lovel=0
release_start=278710
release_xfade=15834
sample=Basses_sustain_PP_G#3.opus
</region>

<region>
end=299024
hivel=127
key=G#1
loop_end=261587
loop_start=104620
loop_xfade=46039
lovel=0
release_start=278640
release_xfade=15830
sample=Basses_sustain_PP_G#2.opus
</region>

<region>
end=289935
hivel=127
key=F3
loop_end=253636
loop_start=101440
loop_xfade=44640
lovel=0
release_start=270170
release_xfade=15348
sample=Basses_sustain_PP_F4.opus
</region>

<region>
end=301335
hivel=127
key=F2
loop_end=263609
loop_start=105429
loop_xfade=46395
lovel=0
release_start=280793
release_xfade=15952
sample=Basses_sustain_PP_F3.opus
</region>

<region>
end=302249
hivel=127
key=F1
loop_end=264409
loop_start=105748
loop_xfade=46536
lovel=0
release_start=281645
release_xfade=16000
sample=Basses_sustain_PP_F2.opus
</region>

<region>
end=298790
hivel=127
key=F#3
loop_end=261383
loop_start=104538
loop_xfade=46003
lovel=0
release_start=278422
release_xfade=15817
sample=Basses_sustain_PP_F#4.opus
</region>

<region>
end=303738
hivel=127
key=F#2
loop_end=265711
loop_start=106269
loop_xfade=46765
lovel=0
release_start=283032
release_xfade=16079
sample=Basses_sustain_PP_F#3.opus
</region>

<region>
end=300344
hivel=127
key=F#1
loop_end=262742
loop_start=105082
loop_xfade=46242
lovel=0
release_start=279870
release_xfade=15899
sample=Basses_sustain_PP_F#2.opus
</region>

<region>
end=301021
hivel=127
key=E3
loop_end=263334
loop_start=105319
loop_xfade=46346
lovel=0
release_start=280501
release_xfade=15935
sample=Basses_sustain_PP_E4.opus
</region>

<region>
end=301602
hivel=127
key=E2
loop_end=263843
loop_start=105522
loop_xfade=46436
lovel=0
release_start=281042
release_xfade=15966
sample=Basses_sustain_PP_E3.opus
</region>

<region>
end=296190
hivel=127
key=E1
loop_end=259108
loop_start=103628
loop_xfade=45603
lovel=0
release_start=275999
release_xfade=15680
sample=Basses_sustain_PP_E2.opus
</region>

<region>
end=296811
hivel=127
key=D3
loop_end=259651
loop_start=103846
loop_xfade=45698
lovel=0
release_start=279629
release_xfade=15712
sample=Basses_sustain_PP_D4.opus
</region>

<region>
end=303788
hivel=127
key=D2
loop_end=265755
loop_start=106287
loop_xfade=46773
lovel=0
release_start=286890
release_xfade=16082
sample=Basses_sustain_PP_D3.opus
</region>

<region>
end=301315
hivel=127
key=D1
loop_end=263591
loop_start=105422
loop_xfade=46392
lovel=0
release_start=280775
release_xfade=15951
sample=Basses_sustain_PP_D2.opus
</region>

<region>
end=288671
hivel=127
key=D#3
loop_end=252530
loop_start=100998
loop_xfade=44445
lovel=0
release_start=271809
release_xfade=15282
sample=Basses_sustain_PP_D#4.opus
</region>

<region>
end=302419
hivel=127
key=D#2
loop_end=264557
loop_start=105808
loop_xfade=46562
lovel=0
release_start=281803
release_xfade=16009
sample=Basses_sustain_PP_D#3.opus
</region>

<region>
end=296921
hivel=127
key=D#1
loop_end=259748
loop_start=103884
loop_xfade=45716
lovel=0
release_start=276680
release_xfade=15718
sample=Basses_sustain_PP_D#2.opus
</region>

<region>
end=299150
hivel=127
key=C3
loop_end=261697
loop_start=104664
loop_xfade=46058
lovel=0
release_start=278757
release_xfade=15836
sample=Basses_sustain_PP_C4.opus
</region>

<region>
end=299938
hivel=127
key=C2
loop_end=262387
loop_start=104940
loop_xfade=46180
lovel=0
release_start=279492
release_xfade=15878
sample=Basses_sustain_PP_C3.opus
</region>

<region>
end=299970
hivel=127
key=C1
loop_end=262415
loop_start=104951
loop_xfade=46185
lovel=0
release_start=279521
release_xfade=15880
sample=Basses_sustain_PP_C2.opus
</region>

<region>
end=300734
hivel=127
key=C#3
loop_end=263083
loop_start=105218
loop_xfade=46302
lovel=0
release_start=280435
release_xfade=15920
sample=Basses_sustain_PP_C#4.opus
</region>

<region>
end=300941
hivel=127
key=C#2
loop_end=263264
loop_start=105291
loop_xfade=46334
lovel=0
release_start=280426
release_xfade=15931
sample=Basses_sustain_PP_C#3.opus
</region>

<region>
end=301240
hivel=127
key=C#1
loop_end=263526
loop_start=105395
loop_xfade=46380
lovel=0
release_start=280705
release_xfade=15947
sample=Basses_sustain_PP_C#2.opus
</region>

<region>
end=303200
hivel=127
key=B2
loop_end=265240
loop_start=106081
loop_xfade=46682
lovel=0
release_start=282895
release_xfade=16051
sample=Basses_sustain_PP_B3.opus
</region>

<region>
end=302327
hivel=127
key=B1
loop_end=264477
loop_start=105776
loop_xfade=46548
lovel=0
release_start=281718
release_xfade=16004
sample=Basses_sustain_PP_B2.opus
</region>

<region>
end=294500
hivel=127
key=A2
loop_end=257630
loop_start=103037
loop_xfade=45343
lovel=0
offset=2164
release_start=274424
release_xfade=15590
sample=Basses_sustain_PP_A3.opus
</region>

<region>
end=302482
hivel=127
key=A1
loop_end=264612
loop_start=105830
loop_xfade=46571
lovel=0
release_start=284493
release_xfade=16013
sample=Basses_sustain_PP_A2.opus
</region>

<region>
end=311543
hivel=127
key=A#2
loop_end=272539
loop_start=109000
loop_xfade=47967
lovel=0
offset=21254
release_start=290305
release_xfade=16492
sample=Basses_sustain_PP_A#3.opus
</region>

<region>
end=297058
hivel=127
key=A#1
loop_end=259867
loop_start=103932
loop_xfade=45736
lovel=0
release_start=276808
release_xfade=15726
sample=Basses_sustain_PP_A#2.opus
</region>
</group>

<group>
group_label=MF
loop_mode=loop_continuous
xf_cccurve=gain
xfin_hicc1=85
xfin_locc1=42
xfout_hicc1=127
xfout_locc1=85

<region>
end=303219
hikey=C4
hivel=127
lokey=G3
loop_end=265257
loop_start=106088
loop_xfade=46685
lovel=0
pitch_keycenter=G3
release_start=282549
release_xfade=16052
sample=Basses_sustain_MF_G4.opus
</region>

<region>
end=303569
hivel=127
key=G2
loop_end=265563
loop_start=106210
loop_xfade=46739
lovel=0
release_start=282875
release_xfade=16070
sample=Basses_sustain_MF_G3.opus
</region>

<region>
end=303219
hivel=127
key=G1
loop_end=265257
loop_start=106088
loop_xfade=46685
lovel=0
release_start=282549
release_xfade=16052
sample=Basses_sustain_MF_G2.opus
</region>

<region>
end=301247
hivel=127
key=G#2
loop_end=263532
loop_start=105398
loop_xfade=46381
lovel=0
release_start=282297
release_xfade=15947
sample=Basses_sustain_MF_G#3.opus
</region>

<region>
end=301882
hivel=127
key=G#1
loop_end=264087
loop_start=105620
loop_xfade=46479
lovel=0
release_start=281303
release_xfade=15981
sample=Basses_sustain_MF_G#2.opus
</region>

<region>
end=301480
hivel=127
key=F3
loop_end=263736
loop_start=105479
loop_xfade=46417
lovel=0
release_start=282303
release_xfade=15960
sample=Basses_sustain_MF_F4.opus
</region>

<region>
end=303323
hivel=127
key=F2
loop_end=265348
loop_start=106124
loop_xfade=46701
lovel=0
release_start=282646
release_xfade=16057
sample=Basses_sustain_MF_F3.opus
</region>

<region>
end=293966
hivel=127
key=F1
loop_end=257162
loop_start=102850
loop_xfade=45260
lovel=0
release_start=273927
release_xfade=15562
sample=Basses_sustain_MF_F2.opus
</region>

<region>
end=302470
hivel=127
key=F#3
loop_end=264602
loop_start=105826
loop_xfade=46570
lovel=0
release_start=283710
release_xfade=16012
sample=Basses_sustain_MF_F#4.opus
</region>

<region>
end=301985
hivel=127
key=F#2
loop_end=264178
loop_start=105656
loop_xfade=46495
lovel=0
release_start=281399
release_xfade=15986
sample=Basses_sustain_MF_F#3.opus
</region>

<region>
end=301857
hivel=127
key=F#1
loop_end=264066
loop_start=105611
loop_xfade=46475
lovel=0
release_start=281280
release_xfade=15980
sample=Basses_sustain_MF_F#2.opus
</region>

<region>
end=303284
hivel=127
key=E3
loop_end=265314
loop_start=106110
loop_xfade=46695
lovel=0
release_start=284687
release_xfade=16055
sample=Basses_sustain_MF_E4.opus
</region>

<region>
end=295612
hivel=127
key=E2
loop_end=258602
loop_start=103426
loop_xfade=45514
lovel=0
release_start=279466
release_xfade=15649
sample=Basses_sustain_MF_E3.opus
</region>

<region>
end=302986
hivel=127
key=E1
loop_end=265053
loop_start=106006
loop_xfade=46649
lovel=0
release_start=282332
release_xfade=16039
sample=Basses_sustain_MF_E2.opus
</region>

<region>
end=301617
hivel=127
key=D3
loop_end=263856
loop_start=105527
loop_xfade=46439
lovel=0
release_start=281056
release_xfade=15967
sample=Basses_sustain_MF_D4.opus
</region>

<region>
end=302190
hivel=127
key=D2
loop_end=264357
loop_start=105728
loop_xfade=46526
lovel=0
release_start=281590
release_xfade=15997
sample=Basses_sustain_MF_D3.opus
</region>

<region>
end=302914
hivel=127
key=D1
loop_end=264990
loop_start=105981
loop_xfade=46638
lovel=0
release_start=282265
release_xfade=16036
sample=Basses_sustain_MF_D2.opus
</region>

<region>
end=298324
hivel=127
key=D#3
loop_end=260975
loop_start=104375
loop_xfade=45931
lovel=0
release_start=282030
release_xfade=15793
sample=Basses_sustain_MF_D#4.opus
</region>

<region>
end=295826
hivel=127
key=D#2
loop_end=258790
loop_start=103501
loop_xfade=45547
lovel=0
release_start=275660
release_xfade=15660
sample=Basses_sustain_MF_D#3.opus
</region>

<region>
end=305314
hivel=127
key=D#1
loop_end=267090
loop_start=106821
loop_xfade=47008
lovel=0
release_start=284501
release_xfade=16163
sample=Basses_sustain_MF_D#2.opus
</region>

<region>
end=305182
hivel=127
key=C3
loop_end=266974
loop_start=106774
loop_xfade=46987
lovel=0
offset=855
release_start=285877
release_xfade=16156
sample=Basses_sustain_MF_C4.opus
</region>

<region>
end=303667
hivel=127
key=C2
loop_end=265649
loop_start=106244
loop_xfade=46754
lovel=0
release_start=282966
release_xfade=16075
sample=Basses_sustain_MF_C3.opus
</region>

<region>
end=301366
hivel=127
key=C1
loop_end=263636
loop_start=105439
loop_xfade=46400
lovel=0
release_start=280822
release_xfade=15954
sample=Basses_sustain_MF_C2.opus
</region>

<region>
end=295607
hivel=127
key=C#3
loop_end=258598
loop_start=103424
loop_xfade=45513
lovel=0
release_start=278367
release_xfade=15649
sample=Basses_sustain_MF_C#4.opus
</region>

<region>
end=302420
hivel=127
key=C#2
loop_end=264558
loop_start=105808
loop_xfade=46562
lovel=0
release_start=281804
release_xfade=16009
sample=Basses_sustain_MF_C#3.opus
</region>

<region>
end=294092
hivel=127
key=C#1
loop_end=257273
loop_start=102894
loop_xfade=45280
lovel=0
release_start=274044
release_xfade=15569
sample=Basses_sustain_MF_C#2.opus
</region>

<region>
end=301479
hivel=127
key=B2
loop_end=263735
loop_start=105479
loop_xfade=46417
lovel=0
release_start=283152
release_xfade=15960
sample=Basses_sustain_MF_B3.opus
</region>

<region>
end=301470
hivel=127
key=B1
loop_end=263727
loop_start=105476
loop_xfade=46416
lovel=0
release_start=280919
release_xfade=15959
sample=Basses_sustain_MF_B2.opus
</region>

<region>
end=305074
hivel=127
key=A2
loop_end=266880
loop_start=106737
loop_xfade=46971
lovel=0
release_start=284277
release_xfade=16150
sample=Basses_sustain_MF_A3.opus
</region>

<region>
end=299772
hivel=127
key=A1
loop_end=262242
loop_start=104882
loop_xfade=46154
lovel=0
release_start=279337
release_xfade=15869
sample=Basses_sustain_MF_A2.opus
</region>

<region>
end=302889
hivel=127
key=A#2
loop_end=264968
loop_start=105972
loop_xfade=46634
lovel=0
release_start=282241
release_xfade=16034
sample=Basses_sustain_MF_A#3.opus
</region>

<region>
end=300785
hivel=127
key=A#1
loop_end=263128
loop_start=105236
loop_xfade=46310
lovel=0
release_start=280281
release_xfade=15923
sample=Basses_sustain_MF_A#2.opus
</region>
</group>

<group>
group_label=FF
loop_mode=loop_continuous
xf_cccurve=gain
xfin_hicc1=127
xfin_locc1=85
xfout_hicc1=127
xfout_locc1=127

<region>
end=307155
hikey=C4
hivel=127
lokey=G3
loop_end=268700
loop_start=107465
loop_xfade=47291
lovel=0
pitch_keycenter=G3
release_start=287972
release_xfade=16260
sample=Basses_sustain_FF_G4.opus
</region>

<region>
end=301689
hivel=127
key=G2
loop_end=263919
loop_start=105552
loop_xfade=46450
lovel=0
release_start=283444
release_xfade=15971
sample=Basses_sustain_FF_G3.opus
</region>

<region>
end=299518
hivel=127
key=G1
loop_end=262019
loop_start=104793
loop_xfade=46115
lovel=0
release_start=282787
release_xfade=15856
sample=Basses_sustain_FF_G2.opus
</region>

<region>
end=302898
hivel=127
key=G#2
loop_end=264976
loop_start=105975
loop_xfade=46636
lovel=0
release_start=286087
release_xfade=16035
sample=Basses_sustain_FF_G#3.opus
</region>

<region>
end=304277
hivel=127
key=G#1
loop_end=266183
loop_start=106458
loop_xfade=46848
lovel=0
release_start=283535
release_xfade=16108
sample=Basses_sustain_FF_G#2.opus
</region>

<region>
end=303376
hivel=127
key=F3
loop_end=265394
loop_start=106143
loop_xfade=46709
lovel=0
release_start=282695
release_xfade=16060
sample=Basses_sustain_FF_F4.opus
</region>

<region>
end=300331
hivel=127
key=F2
loop_end=262731
loop_start=105077
loop_xfade=46241
lovel=0
release_start=281692
release_xfade=15899
sample=Basses_sustain_FF_F3.opus
</region>

<region>
end=303489
hivel=127
key=F1
loop_end=265493
loop_start=106182
loop_xfade=46727
lovel=0
release_start=282800
release_xfade=16066
sample=Basses_sustain_FF_F2.opus
</region>

<region>
end=302301
hivel=127
key=F#3
loop_end=264454
loop_start=105766
loop_xfade=46544
lovel=0
release_start=281693
release_xfade=16003
sample=Basses_sustain_FF_F#4.opus
</region>

<region>
end=301022
hivel=127
key=F#2
loop_end=263335
loop_start=105319
loop_xfade=46347
lovel=0
release_start=282552
release_xfade=15935
sample=Basses_sustain_FF_F#3.opus
</region>

<region>
end=302976
hivel=127
key=F#1
loop_end=265044
loop_start=106003
loop_xfade=46647
lovel=0
release_start=284015
release_xfade=16039
sample=Basses_sustain_FF_F#2.opus
</region>

<region>
end=302702
hivel=127
key=E3
loop_end=264805
loop_start=105907
loop_xfade=46605
lovel=0
release_start=282067
release_xfade=16024
sample=Basses_sustain_FF_E4.opus
</region>

<region>
end=304620
hivel=127
key=E2
loop_end=266483
loop_start=106578
loop_xfade=46901
lovel=0
release_start=287599
release_xfade=16126
sample=Basses_sustain_FF_E3.opus
</region>

<region>
end=304470
hivel=127
key=E1
loop_end=266351
loop_start=106525
loop_xfade=46878
lovel=0
release_start=283715
release_xfade=16118
sample=Basses_sustain_FF_E2.opus
</region>

<region>
end=304592
hivel=127
key=D3
loop_end=266458
loop_start=106568
loop_xfade=46896
lovel=0
release_start=284871
release_xfade=16124
sample=Basses_sustain_FF_D4.opus
</region>

<region>
end=309665
hivel=127
key=D2
loop_end=270896
loop_start=108343
loop_xfade=47677
lovel=0
release_start=290680
release_xfade=16393
sample=Basses_sustain_FF_D3.opus
</region>

<region>
end=305402
hivel=127
key=D1
loop_end=267167
loop_start=106851
loop_xfade=47021
lovel=0
release_start=284583
release_xfade=16167
sample=Basses_sustain_FF_D2.opus
</region>

<region>
end=299493
hivel=127
key=D#3
loop_end=261998
loop_start=104784
loop_xfade=46111
lovel=0
release_start=281159
release_xfade=15854
sample=Basses_sustain_FF_D#4.opus
</region>

<region>
end=300437
hivel=127
key=D#2
loop_end=262823
loop_start=105114
loop_xfade=46257
lovel=0
release_start=283765
release_xfade=15904
sample=Basses_sustain_FF_D#3.opus
</region>

<region>
end=305438
hivel=127
key=D#1
loop_end=267198
loop_start=106864
loop_xfade=47027
lovel=0
release_start=285785
release_xfade=16169
sample=Basses_sustain_FF_D#2.opus
</region>

<region>
end=304597
hivel=127
key=C3
loop_end=266463
loop_start=106570
loop_xfade=46897
lovel=0
release_start=283833
release_xfade=16125
sample=Basses_sustain_FF_C4.opus
</region>

<region>
end=305618
hivel=127
key=C2
loop_end=267356
loop_start=106927
loop_xfade=47054
lovel=0
release_start=286881
release_xfade=16179
sample=Basses_sustain_FF_C3.opus
</region>

<region>
end=305956
hivel=127
key=C1
loop_end=267651
loop_start=107045
loop_xfade=47106
lovel=0
release_start=286638
release_xfade=16197
sample=Basses_sustain_FF_C2.opus
</region>

<region>
end=304285
hivel=127
key=C#3
loop_end=266190
loop_start=106461
loop_xfade=46849
lovel=0
release_start=283542
release_xfade=16108
sample=Basses_sustain_FF_C#4.opus
</region>

<region>
end=304022
hivel=127
key=C#2
loop_end=265960
loop_start=106369
loop_xfade=46809
lovel=0
release_start=285597
release_xfade=16094
sample=Basses_sustain_FF_C#3.opus
</region>

<region>
end=306753
hivel=127
key=C#1
loop_end=268349
loop_start=107324
loop_xfade=47229
lovel=0
release_start=285842
release_xfade=16239
sample=Basses_sustain_FF_C#2.opus
</region>

<region>
end=306992
hivel=127
key=B2
loop_end=268558
loop_start=107408
loop_xfade=47266
lovel=0
release_start=286065
release_xfade=16251
sample=Basses_sustain_FF_B3.opus
</region>

<region>
end=306417
hivel=127
key=B1
loop_end=268055
loop_start=107207
loop_xfade=47177
lovel=0
release_start=287523
release_xfade=16221
sample=Basses_sustain_FF_B2.opus
</region>

<region>
end=307524
hivel=127
key=A2
loop_end=269023
loop_start=107594
loop_xfade=47348
lovel=0
release_start=285296
release_xfade=16280
sample=Basses_sustain_FF_A3.opus
</region>

<region>
end=305111
hivel=127
key=A1
loop_end=266912
loop_start=106750
loop_xfade=46976
lovel=0
release_start=285975
release_xfade=16152
sample=Basses_sustain_FF_A2.opus
</region>

<region>
end=307165
hivel=127
key=A#2
loop_end=268709
loop_start=107468
loop_xfade=47293
lovel=0
release_start=287386
release_xfade=16261
sample=Basses_sustain_FF_A#3.opus
</region>

<region>
end=301236
hivel=127
key=A#1
loop_end=278361
loop_start=105394
loop_xfade=46380
lovel=0
release_start=284095
release_xfade=15947
sample=Basses_sustain_FF_A#2.opus
</region>
</group>